# xmcd
#
# Track frame offsets: 
#        150
#        14743
#        26468
#        48038
#        62669
#        85451
#        99876
#        119628
#        139790
#        155181
#
# Disc length: 2449 seconds
#
# Revision: 0
# Processed by: cddbd v1.5.2PL0 Copyright (c) Steve Scherf et al.
# Submitted via: ExactAudioCopy v0.99pb5
#
DISCID=83098f0a
DTITLE=Marek Ko³akowski - Retrospekcja
DYEAR=2009
DGENRE=
TTITLE0=Sruba
TTITLE1=Dojechali rowerami
TTITLE2=Retrospekcja
TTITLE3=W jeden dzieñ
TTITLE4=Prywatny widok
TTITLE5=Czarna wdowa
TTITLE6=Apofis
TTITLE7=Kombajnem po Uralu
TTITLE8=W powijakach
TTITLE9=Razem
EXTD=
EXTT0=
EXTT1=
EXTT2=
EXTT3=
EXTT4=
EXTT5=
EXTT6=
EXTT7=
EXTT8=
EXTT9=
PLAYORDER=
